<?xml version="1.0" standalone="no"?>
<svg xmlns="http://www.w3.org/2000/svg" version="1.1" xmlns:xlink="http://www.w3.org/1999/xlink" width="512" height="512" x="0" y="0" viewBox="0 0 64 64" style="enable-background:new 0 0 512 512" xml:space="preserve" class=""><g><path d="M21.984 22.249a4.743 4.743 0 0 0-2.5 4 10.756 10.756 0 0 0 1.06 5.655 10.751 10.751 0 0 0 3.663 4.439 5.562 5.562 0 0 0 3.023 1.007 3.875 3.875 0 0 0 1.652-.362 4.741 4.741 0 0 0 2.5-4 10.756 10.756 0 0 0-1.059-5.655c-1.934-4.133-5.595-6.364-8.339-5.084zM29.4 32.76a2.975 2.975 0 0 1-1.362 2.42 2.969 2.969 0 0 1-2.731-.505 8.757 8.757 0 0 1-2.949-3.614 8.751 8.751 0 0 1-.884-4.58 2.97 2.97 0 0 1 1.362-2.419 1.9 1.9 0 0 1 .824-.177c1.613 0 3.661 1.744 4.855 4.3a8.737 8.737 0 0 1 .885 4.575z" fill="#ffffff" opacity="0.8588235294117647" data-original="#000000"/><path d="m59.09 16.14.86-.43a.987.987 0 0 0 .5-.58 1 1 0 0 0-.06-.76l-2.15-4.27a1 1 0 0 0-1.35-.45l-7.4 3.74-16.2-9.79a5.911 5.911 0 0 0-3.68-.81L11.75 4.75a3.95 3.95 0 0 0-1.9.78L4.99 8.68c-2.36 1.39-3.06 2.42-2.98 4.41l.72 20.45a18.568 18.568 0 0 0 4.39 11.31c4.17 4.88 10.86 11.66 19.05 16.26a.947.947 0 0 0 .49.13.528.528 0 0 0 .13-.01c6.94-.9 12.4-3.32 16.27-7.16a21.163 21.163 0 0 0 8.9-7.5 12.146 12.146 0 0 0 1.92-6.99l-.39-15.79.53-.27a1 1 0 0 0 .44-1.34l-1.5-2.94.06-.03 3.05 4.97a.991.991 0 0 0 .85.47.969.969 0 0 0 .52-.14l4.08-2.5a.979.979 0 0 0 .45-.62 1.014 1.014 0 0 0-.12-.76zm-8.81 29.34c-2.28 3.5-7.09 7.94-17.06 9.33-7.81-4.46-14.21-10.96-18.23-15.66a16.474 16.474 0 0 1-3.91-10.08l-.73-20.44a1.853 1.853 0 0 1 .68-1.5 1.908 1.908 0 0 1 .95-.39l17.85-1.96a3.9 3.9 0 0 1 2.43.54l15.13 9.13-13.82 6.97c-3.7-5.05-9.58-7.11-14.28-4.92a10.169 10.169 0 0 0-5.47 7.11 15.536 15.536 0 0 0 1.2 10.11c2.5 5.34 7.36 8.63 12.01 8.63a9.2 9.2 0 0 0 3.95-.87c4.62-2.15 6.82-7.91 5.43-13.89l10.49-5.3 1.52 2.97a1.022 1.022 0 0 0 .58.5 1.055 1.055 0 0 0 .31.04 1.018 1.018 0 0 0 .45-.1l1.76-.9.36 14.83a10.082 10.082 0 0 1-1.6 5.85zm1.79-23.21-.01.01-2.32 1.18-1.05-2.06 1.3-.67 1.18-.59 1.05 2.05zm-.86-4.39c-.02.01-.04.01-.06.02l-2.08 1.06-14.28 7.21a.977.977 0 0 0-.51 1.16c1.52 5.32-.22 10.51-4.14 12.34-4.58 2.14-10.55-.9-13.3-6.79a13.449 13.449 0 0 1-1.07-8.8 8.2 8.2 0 0 1 4.37-5.77 7.385 7.385 0 0 1 3.13-.68c3.3 0 6.8 2.06 9.13 5.62a1 1 0 0 0 1.29.35L56.9 11.89l1.25 2.49-1 .5v.01zm6.04 4.4-2.44-3.98 2.49-1.25 2.32 3.78z" fill="#ffffff" opacity="0.8588235294117647" data-original="#000000"/><path d="M49.618 40.779a1 1 0 0 0-1.288.583 13.9 13.9 0 0 1-3.369 5.115 13.71 13.71 0 0 1-3.969 2.646 1 1 0 1 0 .8 1.83 15.717 15.717 0 0 0 4.547-3.031 15.923 15.923 0 0 0 3.861-5.855 1 1 0 0 0-.582-1.288zM38.67 50.47a.991.991 0 0 0-.9-.27 1.54 1.54 0 0 0-.19.05 1.505 1.505 0 0 0-.17.1.759.759 0 0 0-.15.12 1 1 0 0 0-.29.71.983.983 0 0 0 .29.7 1 1 0 0 0 .71.3 1.019 1.019 0 0 0 .38-.08.887.887 0 0 0 .32-.22 1 1 0 0 0 .3-.7 1.015 1.015 0 0 0-.08-.38.834.834 0 0 0-.22-.33z" fill="#ffffff" opacity="0.8588235294117647" data-original="#000000"/></g></svg>