<?xml version="1.0" standalone="no"?>
<svg xmlns="http://www.w3.org/2000/svg" version="1.1" xmlns:xlink="http://www.w3.org/1999/xlink" width="512" height="512" x="0" y="0" viewBox="0 0 64 64" style="enable-background:new 0 0 512 512" xml:space="preserve" class=""><g><path d="M11.62 62h40.76c1.81 0 3.29-1.48 3.29-3.29V9.81c0-1.83-1.48-3.31-3.29-3.31H42.9a2.574 2.574 0 0 0-2.54-2.22h-4.75A3.996 3.996 0 0 0 32.01 2c-1.58 0-2.96.91-3.6 2.28h-4.74c-1.3 0-2.38.96-2.56 2.22h-9.49c-1.81 0-3.29 1.48-3.29 3.31v48.9c0 1.81 1.48 3.29 3.29 3.29zm36.71-48.99v41.21H15.67V13.01zm-38-3.2c0-.72.58-1.31 1.29-1.31h9.46v1.93c0 .2.02.39.07.58h-6.48c-.56 0-1 .45-1 1v43.21c0 .55.44 1 1 1h34.66c.56 0 1-.45 1-1V12.01c0-.55-.44-1-1-1h-6.47c.05-.19.07-.38.07-.58V8.5h9.45c.71 0 1.29.59 1.29 1.31v48.9c0 .71-.58 1.29-1.29 1.29H11.62c-.71 0-1.29-.58-1.29-1.29z" fill="#ffffff" opacity="1" data-original="#000000" class=""/><path d="M21.771 22.061a.997.997 0 0 0 1.414 0l2.745-2.746a.999.999 0 1 0-1.414-1.414l-2.038 2.038-1.273-1.273a.999.999 0 1 0-1.414 1.414zM29.672 20.981h13.831a1 1 0 1 0 0-2H29.672a1 1 0 1 0 0 2zM21.771 28.75a.997.997 0 0 0 1.414 0l2.745-2.746a.999.999 0 1 0-1.414-1.414l-2.038 2.038-1.273-1.273a.999.999 0 1 0-1.414 1.414zM29.672 27.67h13.831a1 1 0 1 0 0-2H29.672a1 1 0 1 0 0 2zM21.771 35.439a.997.997 0 0 0 1.414 0l2.745-2.745a.999.999 0 1 0-1.414-1.414l-2.038 2.038-1.273-1.274a.999.999 0 1 0-1.414 1.414zM29.672 34.36h13.831a1 1 0 1 0 0-2H29.672a1 1 0 1 0 0 2zM21.771 42.129a.997.997 0 0 0 1.414 0l2.745-2.746a.999.999 0 1 0-1.414-1.414l-2.038 2.038-1.273-1.273a.999.999 0 1 0-1.414 1.414zM29.672 41.049h13.831a1 1 0 1 0 0-2H29.672a1 1 0 1 0 0 2zM21.771 48.818a.997.997 0 0 0 1.414 0l2.745-2.746a.999.999 0 1 0-1.414-1.414l-2.038 2.038-1.273-1.273a.999.999 0 1 0-1.414 1.414zM29.672 47.738h13.831a1 1 0 1 0 0-2H29.672a1 1 0 1 0 0 2z" fill="#ffffff" opacity="1" data-original="#000000" class=""/></g></svg>