<?xml version="1.0" standalone="no"?>
<svg xmlns="http://www.w3.org/2000/svg" version="1.1" xmlns:xlink="http://www.w3.org/1999/xlink" width="512" height="512" x="0" y="0" viewBox="0 0 64 64" style="enable-background:new 0 0 512 512" xml:space="preserve" class=""><g><path d="M47.375 8.725H42v-.26A4.47 4.47 0 0 0 37.534 4H26.466A4.488 4.488 0 0 0 22 8.725h-5.375a7.008 7.008 0 0 0-7 7v2.55a1 1 0 0 0 1 1H13V54.5a5.507 5.507 0 0 0 5.5 5.5h27a5.507 5.507 0 0 0 5.5-5.5V19.275h2.375a1 1 0 0 0 1-1v-2.55a7.008 7.008 0 0 0-7-7zM24 8.465A2.469 2.469 0 0 1 26.466 6h11.068A2.496 2.496 0 0 1 40 8.725H24zM49 54.5a3.504 3.504 0 0 1-3.5 3.5h-27a3.504 3.504 0 0 1-3.5-3.5V19.275h34zm3.375-37.225h-40.75v-1.55a5.006 5.006 0 0 1 5-5h30.75a5.006 5.006 0 0 1 5 5z" fill="#ffffff" opacity="1" data-original="#000000" class=""/><path d="M32 51.486a1 1 0 0 0 1-1V27.378a1 1 0 1 0-2 0v23.108a1 1 0 0 0 1 1zM41.243 51.486a1 1 0 0 0 1-1V27.378a1 1 0 1 0-2 0v23.108a1 1 0 0 0 1 1zM22.757 51.486a1 1 0 0 0 1-1V27.378a1 1 0 0 0-2 0v23.108a1 1 0 0 0 1 1z" fill="#ffffff" opacity="1" data-original="#000000" class=""/></g></svg>