<?xml version="1.0" standalone="no"?>
<svg xmlns="http://www.w3.org/2000/svg" version="1.1" xmlns:xlink="http://www.w3.org/1999/xlink" width="512" height="512" x="0" y="0" viewBox="0 0 64 64" style="enable-background:new 0 0 512 512" xml:space="preserve"><g><circle cx="47" cy="17" r="15" fill="#e6e9ed" opacity="1" data-original="#e6e9ed"/><circle cx="17" cy="47" r="15" fill="#e6e9ed" opacity="1" data-original="#e6e9ed"/><path fill="#ff826e" d="M24.65 7.53c-2.56.73-4.72 2.27-6.25 4.28C16.88 13.83 16 16.34 16 19h3l-6 8-6-8h3c0-7.73 6.27-14 14-14h6v1zM39.35 56.47c2.56-.73 4.72-2.27 6.25-4.28C47.12 50.17 48 47.66 48 45h-3l6-8 6 8h-3c0 7.73-6.27 14-14 14h-6v-1z" opacity="1" data-original="#ff826e"/><path fill="#4fc1e9" d="M47 22c.83 0 1.58-.34 2.12-.88S50 19.83 50 19v-.54c4.06 1.28 7 5.07 7 9.54v.17A14.926 14.926 0 0 1 47 32c-1.77 0-3.47-.32-5.04-.89a9.959 9.959 0 0 0-4.09-7.2c1.17-2.58 3.4-4.59 6.13-5.44V19c0 1.66 1.34 3 3 3z" opacity="1" data-original="#4fc1e9"/><path fill="#b4dd7f" d="M27 58.16v.01C24.35 60.55 20.84 62 17 62s-7.35-1.45-10-3.83V58c0-3.8 2.12-7.11 5.24-8.8L13 56l4-3 4 3 .76-6.8c3.12 1.69 5.24 5 5.24 8.8z" opacity="1" data-original="#b4dd7f"/><path fill="#a0d468" d="M13.4 48.68 17 53l-4 3-.76-6.8c.38-.2.76-.38 1.16-.52zM21.76 49.2 21 56l-4-3 3.6-4.32c.4.14.78.32 1.16.52z" opacity="1" data-original="#a0d468"/><path fill="#f0d0b4" d="M17 48c1.27 0 2.48.24 3.6.68L17 53l-3.6-4.32c1.12-.44 2.33-.68 3.6-.68z" opacity="1" data-original="#f0d0b4"/><circle cx="17" cy="43" r="5" fill="#f0d0b4" opacity="1" data-original="#f0d0b4"/><path fill="#f0d0b4" d="M49.12 21.12A2.996 2.996 0 0 1 44 19v-.53c.95-.31 1.96-.47 3-.47 1.05 0 2.05.16 3 .46V19c0 .83-.34 1.58-.88 2.12z" opacity="1" data-original="#f0d0b4"/><circle cx="47" cy="13" r="5" fill="#f0d0b4" opacity="1" data-original="#f0d0b4"/><path fill="#fcd770" d="M41.96 31.11c.03.29.04.59.04.89 0 5.52-4.48 10-10 10a10.015 10.015 0 0 1-10-10c0-5.52 4.48-10 10-10 .3 0 .6.01.89.04 1.85.16 3.56.83 4.98 1.87a9.959 9.959 0 0 1 4.09 7.2z" opacity="1" data-original="#fcd770"/><path d="M31 35a1 1 0 0 1-1-1h-2c0 1.654 1.346 3 3 3v2h2v-2h3v-3c0-1.654-1.346-3-3-3h-2a1 1 0 0 1-1-1v-1h3a1 1 0 0 1 1 1h2c0-1.654-1.346-3-3-3v-2h-2v2h-3v3c0 1.654 1.346 3 3 3h2a1 1 0 0 1 1 1v1z" fill="#000000" opacity="1" data-original="#000000"/><path d="M32.473 42.976c5.687-.244 10.259-4.816 10.503-10.503C44.3 32.822 45.649 33 47 33c8.822 0 16-7.178 16-16S55.822 1 47 1 31 8.178 31 17c0 1.351.178 2.7.527 4.024-5.687.244-10.259 4.816-10.503 10.503A15.772 15.772 0 0 0 17 31C8.178 31 1 38.178 1 47s7.178 16 16 16 16-7.178 16-16c0-1.351-.178-2.7-.527-4.024zm10.389-12.628a10.979 10.979 0 0 0-3.718-6.695 9.006 9.006 0 0 1 3.965-3.757 3.998 3.998 0 0 0 2.89 2.962V29h2v-6.142a3.997 3.997 0 0 0 2.89-2.961 9 9 0 0 1 5.096 7.825A13.933 13.933 0 0 1 47 31a13.88 13.88 0 0 1-4.138-.652zM43 13c0-2.206 1.794-4 4-4s4 1.794 4 4-1.794 4-4 4-4-1.794-4-4zm4 8a1.996 1.996 0 0 1-1.975-1.756A8.883 8.883 0 0 1 47 19c.68 0 1.34.082 1.977.226A1.996 1.996 0 0 1 47 21zm0-18c7.72 0 14 6.28 14 14a13.93 13.93 0 0 1-3.206 8.905c-.739-3.816-3.458-6.925-7.041-8.232A5.986 5.986 0 0 0 53 13c0-3.309-2.691-6-6-6s-6 2.691-6 6a5.99 5.99 0 0 0 2.24 4.669 11.03 11.03 0 0 0-5.75 4.813 10.91 10.91 0 0 0-3.838-1.344A13.88 13.88 0 0 1 33 17c0-7.72 6.28-14 14-14zM32 23c4.963 0 9 4.037 9 9s-4.037 9-9 9-9-4.037-9-9 4.037-9 9-9zM8.014 57.721a8.98 8.98 0 0 1 3.417-6.778l.768 6.907L17 54.25l4.801 3.6.768-6.907a8.974 8.974 0 0 1 3.417 6.778C23.552 59.764 20.419 61 17 61s-6.552-1.236-8.986-3.279zM13 43c0-2.206 1.794-4 4-4s4 1.794 4 4-1.794 4-4 4-4-1.794-4-4zm4 8.438-1.866-2.24a8.963 8.963 0 0 1 3.732-.001zm3.64-1.244-.44 3.955-1.757-1.318zm-6.839 3.955-.44-3.955 2.197 2.637zm13.993 1.756c-.739-3.816-3.458-6.925-7.041-8.232A5.986 5.986 0 0 0 23 43c0-3.309-2.691-6-6-6s-6 2.691-6 6c0 1.888.879 3.573 2.246 4.674-3.583 1.307-6.301 4.415-7.041 8.232A13.94 13.94 0 0 1 3 47c0-7.72 6.28-14 14-14 1.391 0 2.779.228 4.138.652a11.007 11.007 0 0 0 9.21 9.21A13.88 13.88 0 0 1 31 47a13.93 13.93 0 0 1-3.206 8.905z" fill="#000000" opacity="1" data-original="#000000"/><path d="M43 46h3.954c-.412 4.439-3.537 8.27-7.882 9.511L33 57.246V60h7c7.935 0 14.45-6.193 14.967-14H59l-8-10.667zm10-2v1c0 7.168-5.832 13-13 13h-2.359l1.98-.565C45.144 55.856 49 50.743 49 45v-1h-2l4-5.333L55 44zM21 18h-3.954c.412-4.439 3.537-8.27 7.882-9.511L31 6.754V4h-7C16.065 4 9.55 10.193 9.033 18H5l8 10.667zm-10 2v-1c0-7.168 5.832-13 13-13h2.359l-1.98.565C18.856 8.144 15 13.257 15 19v1h2l-4 5.333L9 20z" fill="#000000" opacity="1" data-original="#000000"/></g></svg>