<?xml version="1.0" standalone="no"?>
<svg xmlns="http://www.w3.org/2000/svg" version="1.1" xmlns:xlink="http://www.w3.org/1999/xlink" width="512" height="512" x="0" y="0" viewBox="0 0 100 100" style="enable-background:new 0 0 512 512" xml:space="preserve" class=""><g><path fill="#ffffff" fill-rule="evenodd" d="M37.507 13.167c-11.063 0-19.648 8.024-19.648 17.474 0 9.45 8.585 17.475 19.648 17.475 11.062 0 19.647-8.025 19.647-17.475 0-9.45-8.585-17.474-19.648-17.474zm10.77 36.775c7.678-3.542 13.044-10.764 13.044-19.3C61.32 18.487 50.447 9 37.507 9s-23.815 9.488-23.815 21.641c0 8.537 5.366 15.76 13.045 19.301C14.077 54.386 5 66.444 5 80.622v10.776h65.013V80.622c0-14.178-9.077-26.236-21.737-30.68zm-10.77 2.34c-15.652 0-28.34 12.688-28.34 28.34v6.61h56.68v-6.61c0-15.652-12.689-28.34-28.34-28.34zm27.38-42.849c11.74 0 21.642 8.612 21.642 19.685 0 7.609-4.675 14.055-11.408 17.345C86.349 50.62 94.35 61.426 94.35 74.1v9.906H77.058v-4.166h13.128V74.1c0-13.972-11.326-25.297-25.297-25.297v-4.167c9.862 0 17.474-7.149 17.474-15.519 0-8.37-7.612-15.518-17.474-15.518z" clip-rule="evenodd" opacity="1" data-original="#000000" class=""/></g></svg>