<?xml version="1.0" standalone="no"?>
<svg xmlns="http://www.w3.org/2000/svg" version="1.1" xmlns:xlink="http://www.w3.org/1999/xlink" width="512" height="512" x="0" y="0" viewBox="0 0 512 512" style="enable-background:new 0 0 512 512" xml:space="preserve"><g><path fill="#b5cf7f" d="M288 120a53.9 53.9 0 0 1-24-44.844V72l24 8 16-16 16 16 24-8v3.156A53.9 53.9 0 0 1 320 120z" opacity="1" data-original="#b5cf7f"/><path fill="#768753" d="M334.09 106.29A53.775 53.775 0 0 1 320 120h-32a53.775 53.775 0 0 1-14.09-13.71 120.725 120.725 0 0 1 60.18 0z" opacity="1" data-original="#768753"/><path fill="#eae9e4" d="M48 112h192v256H48z" opacity="1" data-original="#eae9e4"/><path fill="#b5cf7f" d="M424 368H184l-8-24 8-16v-96a120 120 0 0 1 120-120 120 120 0 0 1 120 120v96a43.189 43.189 0 0 1 2.343 32.971z" opacity="1" data-original="#b5cf7f"/><path fill="#fdc9a6" d="M352 368H128v24l120 64h56l88-24v-96h-40z" opacity="1" data-original="#fdc9a6"/><path fill="#fdc9a6" d="M344 368v28.98H214.87A22.875 22.875 0 0 1 192 374.1a25.042 25.042 0 0 1 .75-6.1z" opacity="1" data-original="#fdc9a6"/><path fill="#8f5528" d="M392 328h64v128h-64z" opacity="1" data-original="#8f5528"/><circle cx="424" cy="248" r="48" fill="#ffc864" opacity="1" data-original="#ffc864"/><path fill="#e6af89" d="M325.51 392H312l-108-24h-76v5.192l68 .895v.013a22.875 22.875 0 0 0 22.87 22.88h106.64a2.49 2.49 0 0 0 0-4.98z" opacity="1" data-original="#e6af89"/><path fill="#fdc9a6" d="m352 336-7.331-4.4a60.2 60.2 0 0 0-64.369 1.532L264 344h-38.874A25.126 25.126 0 0 0 200 369.126 22.874 22.874 0 0 0 222.874 392H352z" opacity="1" data-original="#fdc9a6"/><path fill="#bbbab6" d="M112 104h64v22a10 10 0 0 1-10 10h-44a10 10 0 0 1-10-10v-22z" opacity="1" data-original="#bbbab6"/><path fill="#dcdbd6" d="M112 96h64v22a10 10 0 0 1-10 10h-44a10 10 0 0 1-10-10V96z" opacity="1" data-original="#dcdbd6"/><path d="M296 160v6.3a34.627 34.627 0 0 0-11.17 4.864 28.81 28.81 0 0 0 3.1 49.741l24.992 12.5a12.81 12.81 0 0 1 1.376 22.118 18.506 18.506 0 0 1-20.589 0 12.785 12.785 0 0 1-5.7-10.659V240a8 8 0 0 0-16 0v4.862a28.754 28.754 0 0 0 12.829 23.972A34.622 34.622 0 0 0 296 273.7v6.3a8 8 0 0 0 16 0v-6.3a34.627 34.627 0 0 0 11.17-4.864 28.81 28.81 0 0 0-3.1-49.741l-24.992-12.5a12.81 12.81 0 0 1-1.376-22.118 18.506 18.506 0 0 1 20.589 0 12.785 12.785 0 0 1 5.7 10.659V200a8 8 0 0 0 16 0v-4.862a28.754 28.754 0 0 0-12.829-23.972A34.622 34.622 0 0 0 312 166.3V160a8 8 0 0 0-16 0zM168 152h-48a8 8 0 0 0 0 16h48a8 8 0 0 0 0-16zM96 216h24a8 8 0 0 0 0-16H96a8 8 0 0 0 0 16zM88 240a8 8 0 0 0 8 8h56a8 8 0 0 0 0-16H96a8 8 0 0 0-8 8z" fill="#000000" opacity="1" data-original="#000000"/><path d="M176 88h-64a8 8 0 0 0-8 8v8H48a8 8 0 0 0-8 8v256a8 8 0 0 0 8 8h72v16a8 8 0 0 0 4.235 7.059l120 64c1.159.618 59.765.941 59.765.941.711 0 80-21.526 80-21.526V456a8 8 0 0 0 8 8h64a8 8 0 0 0 8-8V328a8 8 0 0 0-8-8h-24v-16.56a55.988 55.988 0 0 0-6.372-111.385 128.388 128.388 0 0 0-84.164-82.406A62.219 62.219 0 0 0 352 75.155V72a8 8 0 0 0-10.53-7.59l-19.309 6.437-12.5-12.5a8 8 0 0 0-11.314 0l-12.5 12.5-19.317-6.437A8 8 0 0 0 256 72v3.155a62.134 62.134 0 0 0 10.511 34.451A127.08 127.08 0 0 0 248 116.918V112a8 8 0 0 0-8-8h-56v-8a8 8 0 0 0-8-8zm-56 16h48v14a2 2 0 0 1-2 2h-44a2 2 0 0 1-2-2zm182.929 344H250l-114-60.8V376h56.771a30.928 30.928 0 0 0 30.1 24H319.9a8 8 0 1 0 0-16h-97.026A14.892 14.892 0 0 1 208 369.126 17.146 17.146 0 0 1 225.126 352H264a8.005 8.005 0 0 0 4.438-1.344l16.3-10.867a52.434 52.434 0 0 1 55.815-1.327l7.331 4.4A8 8 0 0 0 352 344h32v81.89zM448 448h-48V336h48zm5.2-227.332a40 40 0 1 1-56.538-1.873 39.735 39.735 0 0 1 56.543 1.873zm-43.84-26.7A55.986 55.986 0 0 0 416 303.421V320h-24a8 8 0 0 0-8 8h-29.784l-5.431-3.259a68.506 68.506 0 0 0-72.922 1.736L261.578 336h-36.452a33.186 33.186 0 0 0-31.848 24h-3.512l-5.128-15.386 6.517-13.036C191.711 330.467 192 232 192 232a112.192 112.192 0 0 1 89.1-109.642 8.007 8.007 0 0 0 2.668-.522 112.078 112.078 0 0 1 125.6 72.129zM272.744 83.348l12.726 4.242a8 8 0 0 0 8.187-1.933L304 75.313l10.343 10.344a8 8 0 0 0 8.187 1.933l12.723-4.241a46.254 46.254 0 0 1-10.853 22.306 127.384 127.384 0 0 0-40.805-.021 46.163 46.163 0 0 1-10.851-22.286zM232 126.226A128.429 128.429 0 0 0 180.05 200H152a8 8 0 0 0 0 16h25a128.819 128.819 0 0 0-1 16v59.08a86.99 86.99 0 0 1-12.082 3.305 19.321 19.321 0 0 0-30.52-23.1l-27.055 27.056a8 8 0 0 0 11.314 11.314l27.056-27.055a3.288 3.288 0 0 1 3.39-.8 3.312 3.312 0 0 1 1.295 5.486l-11.055 11.056A8 8 0 0 0 144 312h3.155A102.739 102.739 0 0 0 176 307.89v18.221l-.944 1.889H104a8 8 0 0 0 0 16h64.007a8.007 8.007 0 0 0 .4 2.53L172.9 360H56V120h48.118A18.022 18.022 0 0 0 122 136h44a18.022 18.022 0 0 0 17.882-16H232z" fill="#000000" opacity="1" data-original="#000000"/><path d="M400.636 269.866a8 8 0 0 0 11.307.374l35.046-32.8a8 8 0 1 0-10.933-11.681l-35.046 32.8a8 8 0 0 0-.374 11.307zM413.067 236.318a8 8 0 1 0-11.308-.374 8 8 0 0 0 11.308.374zM434.933 259.682a8 8 0 1 0 11.307.374 8 8 0 0 0-11.307-.374z" fill="#000000" opacity="1" data-original="#000000"/></g></svg>