<?xml version="1.0" standalone="no"?>
<svg xmlns="http://www.w3.org/2000/svg" version="1.1" xmlns:xlink="http://www.w3.org/1999/xlink" width="512" height="512" x="0" y="0" viewBox="0 0 64 64" style="enable-background:new 0 0 512 512" xml:space="preserve" class=""><g transform="matrix(1.3599999999999997,0,0,1.3599999999999997,-11.521114425659185,-11.518857765197723)"><path d="M56 47.25h-3.25V24a.75.75 0 0 0-.75-.75H41.838a9.37 9.37 0 0 0-4.503-4.671l-.06-.029 1.437-4.313a.75.75 0 0 0-.182-.767A9.468 9.468 0 0 0 32 11.25a9.468 9.468 0 0 0-6.53 2.22.75.75 0 0 0-.182.767l1.438 4.313-.061.029a9.37 9.37 0 0 0-4.503 4.671H12a.75.75 0 0 0-.75.75v23.25H8a.75.75 0 0 0-.75.75A4.58 4.58 0 0 0 12 52.75h40a5.757 5.757 0 0 0 2.335-.579A4.325 4.325 0 0 0 56.75 48a.75.75 0 0 0-.75-.75ZM32.75 12.783a8.352 8.352 0 0 1 4.377 1.465l-1.242 3.723a13.694 13.694 0 0 0-3.135-.678Zm-1.5 0v4.51a13.695 13.695 0 0 0-3.135.679l-1.242-3.723a8.35 8.35 0 0 1 4.377-1.466ZM22.75 28a10.903 10.903 0 0 1 .466-3.25 8.236 8.236 0 0 1 .633-1.5 7.925 7.925 0 0 1 3.352-3.274c.229-.12.457-.22.685-.318a10.832 10.832 0 0 1 1.108-.408 11.444 11.444 0 0 1 3.006-.5 11.444 11.444 0 0 1 3.006.5 10.832 10.832 0 0 1 1.108.408c.228.097.456.198.685.318a7.925 7.925 0 0 1 3.352 3.274 8.236 8.236 0 0 1 .633 1.5A10.903 10.903 0 0 1 41.25 28v9.25h-18.5Zm-10-3.25h8.898A12.806 12.806 0 0 0 21.25 28v10a.75.75 0 0 0 .75.75h20a.75.75 0 0 0 .75-.75V28a12.806 12.806 0 0 0-.398-3.25h8.898v22.5h-38.5ZM52 51.25H12a2.966 2.966 0 0 1-3.16-2.5h46.347A3.156 3.156 0 0 1 52 51.25Z" fill="#ffffff" opacity="1" data-original="#000000" class=""/><path d="M32.75 34v-1.25H36a.75.75 0 0 0 .75-.75v-2a.75.75 0 0 0-.22-.53l-2-2a.75.75 0 0 0-.53-.22h-3.69l-1.56-1.56v-.94h4.94l1.78 1.78a.75.75 0 1 0 1.06-1.06l-.72-.72-1.28-1.28a.75.75 0 0 0-.53-.22h-1.25V22a.75.75 0 0 0-1.5 0v1.25H28a.75.75 0 0 0-.75.75v2a.75.75 0 0 0 .22.53l2 2a.75.75 0 0 0 .53.22h3.69l1.56 1.56v.94h-4.94l-1.78-1.78a.75.75 0 0 0-1.06 1.06l2 2a.75.75 0 0 0 .53.22h1.25V34a.75.75 0 0 0 1.5 0Z" fill="#ffffff" opacity="1" data-original="#000000" class=""/></g></svg>