<?xml version="1.0" standalone="no"?>
<svg xmlns="http://www.w3.org/2000/svg" version="1.1" xmlns:xlink="http://www.w3.org/1999/xlink" width="512" height="512" x="0" y="0" viewBox="0 0 128 128" style="enable-background:new 0 0 512 512" xml:space="preserve" class=""><g><path d="M85.333 28.583a1.749 1.749 0 0 0 1.75-1.75v-10.25a1.75 1.75 0 0 0-3.5 0v10.25a1.749 1.749 0 0 0 1.75 1.75Z" fill="#ffffff" opacity="1" data-original="#000000"/><path d="M115.5 42.35h-9.94V18a1.751 1.751 0 0 0-1.75-1.75H93.08V6.5a1.75 1.75 0 0 0-1.75-1.75H36.67a1.75 1.75 0 0 0-1.75 1.75v9.75H24.19A1.751 1.751 0 0 0 22.44 18v24.35H12.5a7.759 7.759 0 0 0-7.75 7.75v47.71a7.759 7.759 0 0 0 7.75 7.75h22.417v15.94a1.75 1.75 0 0 0 1.75 1.75h54.666a1.75 1.75 0 0 0 1.75-1.75v-15.94H115.5a7.759 7.759 0 0 0 7.75-7.75V50.1a7.759 7.759 0 0 0-7.75-7.75Zm-13.44-22.6v22.6h-8.98v-22.6ZM38.42 8.25h51.16v34.1H38.42Zm-12.48 11.5h8.98v22.6h-8.98Zm0 82.31V84.25h8.977v17.81Zm12.477 17.69v-35.5h51.166v35.5Zm54.666-17.69V84.25h8.977v17.81Zm26.667-4.25a4.255 4.255 0 0 1-4.25 4.25h-9.94V82.5a1.751 1.751 0 0 0-1.75-1.75H24.19a1.751 1.751 0 0 0-1.75 1.75v19.56H12.5a4.255 4.255 0 0 1-4.25-4.25V50.1a4.255 4.255 0 0 1 4.25-4.25h103a4.255 4.255 0 0 1 4.25 4.25Z" fill="#ffffff" opacity="1" data-original="#000000"/><path d="M40.333 54.346H15.5a1.75 1.75 0 0 0 0 3.5h24.833a1.75 1.75 0 0 0 0-3.5ZM79 89.25H49a1.75 1.75 0 0 0 0 3.5h30a1.75 1.75 0 0 0 0-3.5ZM79 98.25H49a1.75 1.75 0 0 0 0 3.5h30a1.75 1.75 0 0 0 0-3.5ZM79 107.25H49a1.75 1.75 0 0 0 0 3.5h30a1.75 1.75 0 0 0 0-3.5ZM109.5 51.346a4.75 4.75 0 1 0 4.75 4.75 4.756 4.756 0 0 0-4.75-4.75Zm0 6a1.25 1.25 0 1 1 1.25-1.25 1.251 1.251 0 0 1-1.25 1.25ZM97.625 51.346a4.75 4.75 0 1 0 4.75 4.75 4.756 4.756 0 0 0-4.75-4.75Zm0 6a1.25 1.25 0 1 1 1.25-1.25 1.251 1.251 0 0 1-1.25 1.25ZM85.75 51.346A4.75 4.75 0 1 0 90.5 56.1a4.756 4.756 0 0 0-4.75-4.754Zm0 6A1.25 1.25 0 1 1 87 56.1a1.251 1.251 0 0 1-1.25 1.246Z" fill="#ffffff" opacity="1" data-original="#000000"/></g></svg>