<?xml version="1.0" standalone="no"?>
<svg xmlns="http://www.w3.org/2000/svg" version="1.1" xmlns:xlink="http://www.w3.org/1999/xlink" width="512" height="512" x="0" y="0" viewBox="0 0 64 64" style="enable-background:new 0 0 512 512" xml:space="preserve" class=""><g><path d="m54.7 41.06 1.93-5.24c.29-.78.19-1.6-.27-2.27-.76-1.09-2.33-1.41-3.45-.66-.18.12-.41.1-.58-.04l-1.68-1.47c-.19-.17-.41-.3-.64-.4V11.81c0-.02-.01-.04-.01-.06 0-.1-.03-.21-.07-.31-.01-.03-.02-.06-.04-.09a.963.963 0 0 0-.23-.31l-9.85-8.37a.97.97 0 0 0-.28-.16l-.09-.03c-.08-.02-.15-.03-.22-.04-.02 0-.04-.01-.06-.01H3c-.55 0-1 .45-1 1v57.14c0 .55.45 1 1 1h50c2.44 0 4.72-.96 6.44-2.7A8.836 8.836 0 0 0 62 52.52c-.01-.34-.02-.69-.06-1.02-.41-4.46-3.22-8.46-7.24-10.44zm-6.41 9.09h1.45c1.21 0 2.19.98 2.19 2.19v1.46c0 1.11-.84 2.02-1.92 2.15v.73c0 .55-.44 1-1 1-.55 0-1-.45-1-1v-.7h-.91c-.55 0-1-.45-1-1s.45-1 1-1h2.64c.1 0 .19-.08.19-.18v-1.46c0-.1-.09-.19-.19-.19h-1.45c-1.21 0-2.19-.98-2.19-2.18v-1.46c0-1.11.84-2.02 1.91-2.16v-.73c0-.55.45-1 1-1 .28 0 .53.12.71.3s.3.43.3.71v.7h.91c.55 0 1 .44 1 1 0 .55-.45 1-1 1h-2.64c-.11 0-.19.08-.19.18v1.46c0 .1.08.18.19.18zM4 59.57V4.43h34.16v7.38c0 .55.45 1 1 1h8.85v18.17c-.22.1-.44.23-.63.4l-1.69 1.47c-.13.12-.29.24-.58.03-.91-.61-2.06-.56-2.93.12a2.45 2.45 0 0 0-.79 2.81l1.94 5.25c-4.47 2.16-7.3 6.65-7.3 11.76.02 2.71 1.31 5.14 3.3 6.75z" fill="#ffffff" opacity="0.8392156862745098" data-original="#000000" class=""/><rect width="6.9" height="6.89" x="6.5" y="21.65" rx="1" fill="#ffffff" opacity="0.8392156862745098" data-original="#000000" class=""/><path d="M16.924 24.42h21.704a1 1 0 1 0 0-2H16.924a1 1 0 1 0 0 2zM16.924 27.771h13.887a1 1 0 1 0 0-2H16.924a1 1 0 1 0 0 2z" fill="#ffffff" opacity="0.8392156862745098" data-original="#000000" class=""/><rect width="6.9" height="6.89" x="6.5" y="30.93" rx="1" fill="#ffffff" opacity="0.8392156862745098" data-original="#000000" class=""/><path d="M16.924 33.699h21.704a1 1 0 1 0 0-2H16.924a1 1 0 1 0 0 2zM16.924 37.05h13.887a1 1 0 1 0 0-2H16.924a1 1 0 1 0 0 2zM12.4 40.21H7.5c-.55 0-1 .44-1 1v4.89c0 .55.45 1 1 1h4.9c.55 0 1-.45 1-1v-4.89c0-.56-.45-1-1-1zM16.924 42.979h21.704a1 1 0 1 0 0-2H16.924a1 1 0 1 0 0 2zM30.811 44.33H16.924a1 1 0 1 0 0 2h13.887a1 1 0 1 0 0-2z" fill="#ffffff" opacity="0.8392156862745098" data-original="#000000" class=""/></g></svg>