<?xml version="1.0" standalone="no"?>
<svg xmlns="http://www.w3.org/2000/svg" version="1.1" xmlns:xlink="http://www.w3.org/1999/xlink" width="512" height="512" x="0" y="0" viewBox="0 0 96 96" style="enable-background:new 0 0 512 512" xml:space="preserve"><g><path d="M47.994 76.109a4 4 0 0 0 4-4v-1.952h.023c7.207 0 13.07-5.862 13.07-13.068 0-7.222-5.863-13.098-13.07-13.098h-.023V33.824h6.685a4 4 0 0 0 0-8h-6.685V23.9a4 4 0 0 0-8 0v1.924c-7.221.002-13.095 5.876-13.095 13.096 0 7.205 5.874 13.067 13.095 13.07v10.167h-6.686a4 4 0 0 0 0 8h6.686v1.952a4 4 0 0 0 4 4zM38.899 38.92c0-2.761 2.333-5.094 5.095-5.096V43.99c-2.762-.002-5.095-2.323-5.095-5.07zm13.095 13.07h.023c2.748 0 5.07 2.334 5.07 5.098a5.074 5.074 0 0 1-5.07 5.068h-.023z" fill="#ffffff" opacity="1" data-original="#000000"/><path d="M92.008 22.706H80.841c-.083 0-.161.02-.242.024-.174.01-.347.019-.519.052-.127.024-.246.069-.369.105-.126.038-.254.067-.378.118-.163.066-.314.154-.466.241-.069.04-.144.065-.212.11l-.02.016a4.04 4.04 0 0 0-.463.373c-.05.045-.108.082-.156.129-.145.145-.27.307-.391.473a3.698 3.698 0 0 0-.238.375 3.944 3.944 0 0 0-.346.792c-.039.125-.089.246-.116.374-.017.08-.016.165-.027.247-.026.181-.054.361-.055.544 0 .01-.003.019-.003.028 0 .09.021.174.026.263.011.166.019.331.05.496.025.133.071.257.11.385.036.122.063.244.112.363.066.162.153.312.239.462.041.071.066.147.112.217a34.858 34.858 0 0 1 5.67 19.098c0 19.392-15.776 35.168-35.168 35.168a34.84 34.84 0 0 1-19.099-5.67 4 4 0 1 0-4.373 6.699 42.828 42.828 0 0 0 23.472 6.971c23.803 0 43.168-19.365 43.168-43.168 0-6-1.26-11.865-3.645-17.284h4.49c2.209 0 4-1.791 4-4s-1.787-4.001-3.996-4.001zM4.008 73.303H15.151a4.025 4.025 0 0 0 .905-.114c.179-.042.355-.097.53-.165.053-.021.107-.037.16-.06a4.09 4.09 0 0 0 .576-.306c.01-.006.017-.015.026-.021.146-.097.276-.212.408-.327.068-.06.146-.11.21-.173.093-.092.167-.199.25-.299.082-.1.174-.192.246-.298.044-.065.073-.141.113-.209.09-.152.184-.303.252-.464.041-.097.063-.203.096-.304.049-.145.104-.288.136-.437.018-.081.018-.167.029-.25.026-.18.053-.359.055-.541 0-.011.003-.021.003-.032 0-.087-.021-.168-.025-.254-.011-.167-.019-.334-.051-.5-.024-.129-.068-.25-.105-.375s-.065-.25-.115-.372c-.064-.158-.148-.303-.231-.45-.042-.074-.068-.152-.115-.224a35.106 35.106 0 0 1-5.648-19.137c0-19.376 15.764-35.14 35.14-35.14 6.83 0 13.444 1.96 19.126 5.67a4 4 0 0 0 4.373-6.699c-6.985-4.56-15.111-6.971-23.499-6.971-23.787 0-43.14 19.353-43.14 43.14A43.133 43.133 0 0 0 8.49 65.304H4.01a4 4 0 0 0-.002 7.999z" fill="#ffffff" opacity="1" data-original="#000000"/></g></svg>